<svg id="Layer_1" data-name="Layer 1" xmlns="http://www.w3.org/2000/svg" viewBox="0 0 2834.65 340.16"><defs><style>.cls-1{fill:#2a1911;}.cls-10,.cls-2,.cls-4,.cls-5,.cls-6,.cls-7,.cls-8,.cls-9{fill:none;}.cls-2,.cls-3,.cls-4{stroke:#fef2db;}.cls-10,.cls-2,.cls-3,.cls-4,.cls-5,.cls-6,.cls-7,.cls-8,.cls-9{stroke-miterlimit:10;}.cls-10,.cls-2,.cls-3{stroke-width:5px;}.cls-3{fill:#fef2dc;opacity:0.8;}.cls-4{stroke-width:17px;}.cls-10,.cls-5,.cls-6,.cls-7,.cls-8,.cls-9{stroke:#7f8182;}.cls-5{stroke-width:2.5px;}.cls-6{stroke-width:3.25px;}.cls-7{stroke-width:3.5px;}.cls-8{stroke-width:4px;}.cls-9{stroke-width:4.5px;}</style></defs><title>fretboard</title><rect class="cls-1" x="10.59" width="2827.41" height="340.15"/><line class="cls-2" x1="196.82" y1="340.16" x2="196.82"/><line class="cls-2" x1="397.54" y1="340.16" x2="397.54"/><line class="cls-2" x1="576.47" y1="340.16" x2="576.47"/><line class="cls-2" x1="756.21" y1="340.16" x2="756.21"/><line class="cls-2" x1="921.14" y1="340.16" x2="921.14"/><line class="cls-2" x1="1072.77" y1="340.16" x2="1072.77"/><line class="cls-2" x1="1222.96" y1="340.16" x2="1222.96"/><line class="cls-2" x1="1356.65" y1="340.16" x2="1356.65"/><line class="cls-2" x1="1490.34" y1="340.16" x2="1490.34"/><line class="cls-2" x1="1616.16" y1="340.16" x2="1616.16"/><line class="cls-2" x1="1731.5" y1="340.16" x2="1731.5"/><line class="cls-2" x1="1844.22" y1="340.16" x2="1844.22"/><line class="cls-2" x1="1946.45" y1="340.16" x2="1946.45"/><line class="cls-2" x1="2048.69" y1="340.16" x2="2048.69"/><line class="cls-2" x1="2143.06" y1="340.16" x2="2143.06"/><line class="cls-2" x1="2237.42" y1="340.16" x2="2237.42"/><line class="cls-2" x1="2316.06" y1="340.16" x2="2316.06"/><line class="cls-2" x1="2397.32" y1="340.16" x2="2397.32"/><line class="cls-2" x1="2473.35" y1="340.16" x2="2473.35"/><line class="cls-2" x1="2538.88" y1="340.16" x2="2538.88"/><line class="cls-2" x1="2611.89" y1="340.16" x2="2611.89"/><line class="cls-2" x1="2678.19" y1="340.16" x2="2678.19"/><line class="cls-2" x1="2740.72" y1="340.16" x2="2740.72"/><line class="cls-2" x1="2803.64" y1="340.16" x2="2803.64"/><ellipse class="cls-3" cx="839.46" cy="173.18" rx="14.42" ry="15.87"/><ellipse class="cls-3" cx="488.13" cy="173.45" rx="14.42" ry="15.87"/><ellipse class="cls-3" cx="1148.25" cy="172.63" rx="14.42" ry="15.87"/><path class="cls-3" d="M1439.36,172.32c.13,8.77-6.21,15.16-14.18,15.31s-14.52-6-14.65-14.78,6.22-16,14.18-16.13S1439.23,163.56,1439.36,172.32Z"/><ellipse class="cls-3" cx="1787.86" cy="63.75" rx="14.42" ry="15.87"/><ellipse class="cls-3" cx="2094.56" cy="175.87" rx="14.42" ry="15.87"/><ellipse class="cls-3" cx="2278.42" cy="175.87" rx="14.42" ry="15.87"/><ellipse class="cls-3" cx="2435.33" cy="175.87" rx="14.42" ry="15.87"/><ellipse class="cls-3" cx="2577.48" cy="175.87" rx="14.42" ry="15.87"/><ellipse class="cls-3" cx="2772.44" cy="64.01" rx="14.41" ry="15.86"/><ellipse class="cls-3" cx="2773.27" cy="280.31" rx="14.41" ry="15.87"/><ellipse class="cls-3" cx="1787.86" cy="280.31" rx="14.42" ry="15.87"/><line class="cls-4" x1="5.15" y1="340.16" x2="5.15"/><polyline class="cls-5" points="3.79 36.28 10.59 36.28 2838 36.28"/><polyline class="cls-6" points="3.56 90.63 10.59 90.63 2838 90.63"/><polyline class="cls-7" points="3.46 144.98 10.59 144.98 2838 144.98"/><polyline class="cls-8" points="3.9 199.33 10.59 199.33 2838 199.33"/><polyline class="cls-9" points="3.67 253.67 10.59 253.67 2838 253.67"/><polyline class="cls-10" points="3.35 308.97 10.59 308.97 2838 308.97"/></svg>