<svg id="Layer_1" data-name="Layer 1" xmlns="http://www.w3.org/2000/svg" viewBox="0 0 2841.35 340.16"><defs><style>.cls-1{fill:#2a1911;}.cls-10,.cls-2,.cls-4,.cls-5,.cls-6,.cls-7,.cls-8,.cls-9{fill:none;}.cls-2,.cls-3,.cls-4{stroke:#fef2db;}.cls-10,.cls-2,.cls-3,.cls-4,.cls-5,.cls-6,.cls-7,.cls-8,.cls-9{stroke-miterlimit:10;}.cls-10,.cls-2,.cls-3{stroke-width:5px;}.cls-3{fill:#fef2dc;opacity:0.8;}.cls-4{stroke-width:17px;}.cls-10,.cls-5,.cls-6,.cls-7,.cls-8,.cls-9{stroke:#7f8182;}.cls-5{stroke-width:2.5px;}.cls-6{stroke-width:3.25px;}.cls-7{stroke-width:3.5px;}.cls-8{stroke-width:4px;}.cls-9{stroke-width:4.5px;}</style></defs><title>Artboard 17</title><rect class="cls-1" x="13.94" width="2827.41" height="340.15"/><line class="cls-2" x1="200.17" y1="340.16" x2="200.17"/><line class="cls-2" x1="400.89" y1="340.16" x2="400.89"/><line class="cls-2" x1="579.82" y1="340.16" x2="579.82"/><line class="cls-2" x1="759.56" y1="340.16" x2="759.56"/><line class="cls-2" x1="924.49" y1="340.16" x2="924.49"/><line class="cls-2" x1="1076.13" y1="340.16" x2="1076.13"/><line class="cls-2" x1="1226.31" y1="340.16" x2="1226.31"/><line class="cls-2" x1="1360" y1="340.16" x2="1360"/><line class="cls-2" x1="1493.69" y1="340.16" x2="1493.69"/><line class="cls-2" x1="1619.52" y1="340.16" x2="1619.52"/><line class="cls-2" x1="1734.86" y1="340.16" x2="1734.86"/><line class="cls-2" x1="1847.57" y1="340.16" x2="1847.57"/><line class="cls-2" x1="1949.81" y1="340.16" x2="1949.81"/><line class="cls-2" x1="2052.04" y1="340.16" x2="2052.04"/><line class="cls-2" x1="2146.41" y1="340.16" x2="2146.41"/><line class="cls-2" x1="2240.77" y1="340.16" x2="2240.77"/><line class="cls-2" x1="2319.41" y1="340.16" x2="2319.41"/><line class="cls-2" x1="2400.67" y1="340.16" x2="2400.67"/><line class="cls-2" x1="2476.7" y1="340.16" x2="2476.7"/><line class="cls-2" x1="2542.23" y1="340.16" x2="2542.23"/><line class="cls-2" x1="2618.25" y1="340.16" x2="2618.25"/><line class="cls-2" x1="2678.54" y1="340.16" x2="2678.54"/><line class="cls-2" x1="2744.07" y1="340.16" x2="2744.07"/><line class="cls-2" x1="2806.99" y1="340.16" x2="2806.99"/><ellipse class="cls-3" cx="842.81" cy="173.18" rx="14.42" ry="15.87"/><ellipse class="cls-3" cx="491.48" cy="173.45" rx="14.42" ry="15.87"/><ellipse class="cls-3" cx="1151.6" cy="172.63" rx="14.42" ry="15.87"/><path class="cls-3" d="M1442.71,172.32c.13,8.77-6.21,15.16-14.17,15.31s-14.53-6-14.66-14.78,6.22-16,14.18-16.13S1442.58,163.56,1442.71,172.32Z"/><ellipse class="cls-3" cx="1791.21" cy="63.75" rx="14.42" ry="15.87"/><ellipse class="cls-3" cx="2097.91" cy="175.87" rx="14.42" ry="15.87"/><ellipse class="cls-3" cx="2281.77" cy="175.87" rx="14.42" ry="15.87"/><ellipse class="cls-3" cx="2438.69" cy="175.87" rx="14.42" ry="15.87"/><ellipse class="cls-3" cx="2580.84" cy="175.87" rx="14.42" ry="15.87"/><ellipse class="cls-3" cx="2775.79" cy="64.01" rx="14.41" ry="15.86"/><ellipse class="cls-3" cx="2776.62" cy="280.31" rx="14.41" ry="15.87"/><ellipse class="cls-3" cx="1791.21" cy="280.31" rx="14.42" ry="15.87"/><line class="cls-4" x1="8.5" y1="340.16" x2="8.5"/><polyline class="cls-5" points="7.14 36.28 13.94 36.28 2841.35 36.28"/><polyline class="cls-6" points="6.92 90.63 13.94 90.63 2841.35 90.63"/><polyline class="cls-7" points="6.81 144.98 13.94 144.98 2841.35 144.98"/><polyline class="cls-8" points="7.25 199.33 13.94 199.33 2841.35 199.33"/><polyline class="cls-9" points="7.03 253.67 13.94 253.67 2841.35 253.67"/><polyline class="cls-10" points="6.7 308.97 13.94 308.97 2841.35 308.97"/></svg>