<?xml version="1.0" encoding="utf-8"?>
<!-- Generator: Adobe Illustrator 23.0.3, SVG Export Plug-In . SVG Version: 6.00 Build 0)  -->
<svg version="1.1" id="Layer_1" xmlns="http://www.w3.org/2000/svg" xmlns:xlink="http://www.w3.org/1999/xlink" x="0px" y="0px"
	 viewBox="0 0 755 710.4" style="enable-background:new 0 0 755 710.4;" xml:space="preserve">
<style type="text/css">
	.st0{fill:#ECE882;}
	.st1{fill:#FFFFFF;}
	.st2{fill:none;stroke:#1B3C87;stroke-width:3.69;stroke-linecap:round;stroke-linejoin:round;}
	.st3{fill:#B1D897;}
	.st4{fill:#E38381;stroke:#1B3C87;stroke-width:3.69;stroke-linecap:round;stroke-linejoin:round;}
	.st5{fill:#E38381;}
	.st6{fill:#1B3C87;}
</style>
<title>inf</title>
<g id="Group_4" transform="translate(-18.142 -182.508)">
	<path id="Path_50" class="st0" d="M326.4,315c0,19.6-15.9,35.4-35.4,35.4c-19.6,0-35.4-15.9-35.4-35.4c0-19.6,15.9-35.4,35.4-35.4
		l0,0C310.6,279.6,326.4,295.4,326.4,315L326.4,315"/>
	<path id="Path_51" class="st0" d="M437.2,376.4c2.5-1.2,6.2-9.2,6.2-21c0-29.4-22.3-43.2-58-43.2c-24.9,0-54.3,9.3-73,44.3
		c-14,26-19.7,83.4-31.3,104c-7.4,13-23.1,39.5-35.1,64.3c-4.5,6.3-27.2,54.5,7.5,70.3c34.7,15.8,195.8,9.3,200.1,2.5
		c4.3-6.8-19.8-55.3-27.7-65.1c-7.9-9.8-19.3-22.3-12.8-70.6s0.6-76.8,6.2-79.1C424.6,380.5,431.3,380.4,437.2,376.4"/>
	<path id="Path_52" class="st1" d="M347.6,410.2c0,8.3-6.7,15-15,15s-15-6.7-15-15s6.7-15,15-15l0,0
		C340.9,395.2,347.6,401.9,347.6,410.2"/>
	<path id="Path_53" class="st2" d="M243.1,733.4"/>
	<path id="Path_54" class="st1" d="M585.6,506.5c13.6-17.1,12.5-38.6,6.9-32.6c-1.9,2-28.3,43.4-33.1,47.4l0,0
		c-2.5-0.4-5-0.2-7.3,0.7c-4.8,3.1-5.9,28.2-7.8,30.2s-74.9,91.1-78,93.8c-0.4,1.1-4.3-36.8-6-43.6c-6.8,4.4-23.3,11.6-28.2,12.6
		c0.1,4.3-3,56.9-8.1,73.5c2.1,5.6,16.4,23.3,23.2,24c13.1,1.4,27.7-2.1,31.6-4.2c16.5-8.8,90.5-138.2,95.2-140.5
		c9.3-4.7,25.8-22.7,29.2-34.9C603.7,527.5,608.6,524.4,585.6,506.5"/>
	<path id="Path_55" class="st3" d="M400.5,518c38.8-12.7,74.1,75.5,71.4,82.6c-2.8,7.1-41.9,28.4-50.5,27.2S385.4,522.9,400.5,518"
		/>
	<path id="Path_56" class="st4" d="M394.8,512.3c38.8-12.7,74.1,75.5,71.4,82.6c-2.8,7.1-41.9,28.4-50.5,27.3
		C407.2,621,379.7,517.2,394.8,512.3z"/>
	<path id="Path_57" class="st5" d="M353.8,496c109.9,2.6,82.1,247.9,77.1,256.7c-6.8,11.8-147.4,22.5-181-10.4
		C242.1,734.7,249.5,493.5,353.8,496"/>
	<path id="Path_58" class="st2" d="M335.4,491.2c4.2-0.7,8.5-1.1,12.7-0.9c33.8,0.8,54.5,24.5,66.9,57.2"/>
	<path id="Path_59" class="st2" d="M431.2,636.3c3,55.6-3.8,106.8-6.1,110.7c-6.8,11.8-147.4,22.5-181-10.4
		c-7-6.9-1.6-207.1,78-241.4"/>
	<path id="Path_60" class="st1" d="M427.9,349.3c0.2,13.6-94.9,26.5-95.4,45.9s-0.8,30.6-0.8,30.6c3.4,18.1-4,81.9-6,88.6
		c8,7.4,48,6.9,52.4,2.4c-0.6-4.5-0.5-35.1,0.7-38.6l0,0c1.7,0.2,3.4,0.3,5.1,0.3c30.6,0,55.4-36.1,55.4-80.7
		C439.1,374.6,438.8,368.4,427.9,349.3"/>
	<path id="Path_61" class="st5" d="M297.1,503.4c42.5,13.2,17.1,116.2,8.9,120.3c-8.1,4.1-87.8-18.7-89.4-27.6
		C215,587.2,242.9,486.6,297.1,503.4"/>
	<path id="Path_62" class="st2" d="M315.3,550.8c-0.3,31.3-10.4,64.9-15,67.2c-8.1,4.1-87.8-18.7-89.4-27.6
		c-0.5-2.6,1.6-13.2,6.1-26.3"/>
	<path id="Path_63" class="st2" d="M239.4,520.2c13-17.3,30.4-29.1,51.9-22.4c1.7,0.5,3.4,1.2,5,2.1"/>
	<path id="Path_64" class="st2" d="M496.2,598.1c20.3-24.6,42-51,43.1-52.1c1.9-2,3-27.1,7.8-30.2s32.3,3.5,32,6.7
		s-12.9,12.4-15.8,12.9"/>
	<path id="Path_65" class="st2" d="M456.7,603.4c2.4,6.6,10.1,43,10.4,41.9c0.7-0.8,5.3-7.6,11.8-17.4"/>
	<path id="Path_66" class="st2" d="M580.5,500.2c13.6-17.1,12.5-38.6,6.9-32.6c-1.9,2-28.3,43.4-33.1,47.4"/>
	<path id="Path_67" class="st2" d="M583.9,505.4c-1.9,2.8-10.3,13.8-10.3,13.8"/>
	<path id="Path_68" class="st2" d="M591,510.9c-3.8,6.5-8,12.7-12.7,18.5"/>
	<path id="Path_69" class="st2" d="M597.2,516.7c-4.4,7.3-9.2,14.2-14.5,20.8"/>
	<path id="Path_70" class="st2" d="M574.1,558.2c-1.6,1.3-3.3,2.4-5.1,3.4c-4.6,2.4-78.7,131.7-95.2,140.5
		c-3.9,2.1-18.5,5.6-31.6,4.2c-6.8-0.8-19.9-16-22-21.6"/>
	<path id="Path_71" class="st2" d="M598.1,526.7c-2.1,6.2-5.4,11.9-9.6,16.9"/>
	<path id="Path_72" class="st2" d="M421,443.2c-10.2,18.1-25.6,29.6-42.9,29.6c-11,0-21.3-4.7-30-12.8"/>
	<path id="Path_73" class="st2" d="M422.2,343.6c7.5,15.1,11.4,31.7,11.2,48.6c0,8.5-0.9,17-2.8,25.3"/>
	<path id="Path_74" class="st2" d="M335.4,416.9c-6.8,4.7-16.2,3-20.9-3.8s-3-16.2,3.8-20.9c4.2-2.9,9.6-3.5,14.3-1.5"/>
	<path id="Path_75" class="st6" d="M381.2,387.6c0,3.2-1.4,5.8-3.1,5.8s-3.1-2.6-3.1-5.8c0-3.2,1.4-5.8,3.1-5.8
		C379.8,381.8,381.2,384.4,381.2,387.6"/>
	<path id="Path_76" class="st6" d="M429.1,379c0,3.2-1.4,5.8-3.1,5.8c-1.8,0-3.1-2.6-3.1-5.8c0-3.2,1.4-5.8,3.1-5.8
		C427.7,373.2,429.1,375.8,429.1,379"/>
	<path id="Path_77" class="st2" d="M409.8,414.6c0.5,1,1.2,2,1.9,2.9"/>
	<path id="Path_78" class="st2" d="M406.7,396.8c-0.3,4.2,0.1,8.5,1.1,12.6"/>
	<path id="Path_79" class="st2" d="M363.5,426c0.6,4.1,5.1,9.3,11.3,11.3"/>
	<path id="Path_80" class="st2" d="M372.3,511.1c-0.6-4.5-0.5-35.1,0.7-38.6"/>
	<path id="Path_81" class="st2" d="M323.8,481.6c-0.7,9.1-2,18.2-3.8,27.1c3.2,2.9,11.4,4.6,20.4,5.3"/>
	<path id="Path_82" class="st2" d="M326,420.1c1.4,7,1,20.9,0,35.7"/>
	<path id="Path_83" class="st2" d="M259.1,333.1c-13.2-14.5-12.1-36.9,2.4-50c3.8-3.4,8.3-6,13.2-7.6"/>
	<path id="Path_84" class="st2" d="M318,295.6c7.6,18-0.8,38.8-18.8,46.4c-7,3-14.8,3.6-22.2,1.8"/>
	<path id="Path_85" class="st2" d="M408.9,310.6c18.2,6.1,28.8,18.9,28.8,39.1c0,11.8-3.7,19.8-6.2,21"/>
	<path id="Path_86" class="st2" d="M285.3,424.9c6.2-25.1,11.9-56.7,21.2-74.2c17.6-32.8,44.5-43,68.3-44.1"/>
	<path id="Path_87" class="st2" d="M240.2,519.2c8.3-17.1,18.3-35,26.2-48.7"/>
	<path id="Path_88" class="st2" d="M406.3,499.9c0.3,4.3,1.2,8.5,2.8,12.5"/>
	<path id="Path_89" class="st2" d="M406.6,461.3c-1,3.5-1.5,14.7-1.1,25.9"/>
	<path id="Path_90" class="st2" d="M425.9,334.6c0,28.6-99.1,31.1-99.1,54.9"/>
	<path id="Path_91" class="st1" d="M471.4,757.9c-2.2-16.5-7.1-34.1-42.3-32.6c-4.8-3.8-97.1-30-152.7-44.4
		c6.5-13.4,14-54.1,14.4-57.9c-4.1-0.8-65.1-19.5-65.1-19.5s-25.5,106.6-20,115.6c34.1,21.7,162.1,37.4,220,33.3
		c4.1,3.2,3.5,5.2,9.2,6C440.7,759.2,471.4,757.9,471.4,757.9"/>
	<path id="Path_92" class="st2" d="M361.3,699.9c32.9,9.4,59.7,17.6,62.2,19.7c35.2-1.5,40.1,16,42.3,32.6"/>
	<path id="Path_93" class="st2" d="M285.1,617.4c-0.4,3.7-7.9,44.4-14.4,57.9c19.4,5,43.2,11.4,66.2,17.9"/>
	<path id="Path_94" class="st2" d="M435.3,736.6c1.6,5.7,2.2,11.6,1.7,17.4"/>
	<path id="Path_95" class="st2" d="M445.9,736.6c1.6,5.7,2.2,11.6,1.7,17.4"/>
	<path id="Path_96" class="st2" d="M454.5,736.6c1.6,5.7,2.2,11.6,1.7,17.4"/>
	<path id="Path_97" class="st2" d="M201.5,686.1c-2.4,14.9-3.4,26-1.4,27.2c47.7,30.3,191.9,35,220,33.3"/>
	<path id="Path_98" class="st2" d="M220,597.8c-0.5,1.8-5.4,22.5-10.4,45.9"/>
</g>
</svg>
