<svg id="Layer_1" data-name="Layer 1" xmlns="http://www.w3.org/2000/svg" viewBox="0 0 406.79 490.61"><defs><style>.cls-1{fill:#ece882;}.cls-2{fill:#fff;}.cls-3{fill:#b1d897;}.cls-4,.cls-5{fill:#e38381;}.cls-4,.cls-6{stroke:#1b3c87;stroke-linecap:round;stroke-linejoin:round;stroke-width:3.69px;}.cls-6{fill:none;}.cls-7{fill:#1b3c87;}</style></defs><title>illustration</title><g id="Group_4" data-name="Group 4"><path id="Path_50" data-name="Path 50" class="cls-1" d="M129.21,41.35A35.4,35.4,0,1,1,93.81,6h0a35.33,35.33,0,0,1,35.4,35.4h0"/><path id="Path_51" data-name="Path 51" class="cls-1" d="M240,102.74c2.5-1.2,6.2-9.2,6.2-21,0-29.39-22.3-43.2-58-43.2-24.9,0-54.3,9.3-73,44.3-14,26-19.7,83.4-31.3,104-7.4,13-23.1,39.5-35.1,64.3-4.5,6.3-27.2,54.5,7.5,70.3s195.8,9.3,200.1,2.5-19.8-55.3-27.7-65.09-19.3-22.3-12.8-70.61.6-76.8,6.2-79.1c5.3-2.29,12-2.4,17.9-6.4"/><path id="Path_52" data-name="Path 52" class="cls-2" d="M150.41,136.55a15,15,0,1,1-15-15h0a15,15,0,0,1,15,15"/><path id="Path_54" data-name="Path 54" class="cls-2" d="M388.41,232.85c13.6-17.11,12.5-38.61,6.9-32.61-1.9,2-28.3,43.4-33.1,47.4h0a13.8,13.8,0,0,0-7.3.71c-4.8,3.09-5.9,28.2-7.8,30.2s-74.9,91.09-78,93.8c-.4,1.09-4.3-36.8-6-43.6-6.8,4.4-23.3,11.6-28.2,12.6.1,4.29-3,56.9-8.1,73.5,2.1,5.59,16.4,23.29,23.2,24,13.1,1.4,27.7-2.1,31.6-4.21,16.5-8.79,90.5-138.2,95.2-140.5,9.3-4.7,25.8-22.7,29.2-34.9.5-5.39,5.4-8.49-17.6-26.39"/><path id="Path_55" data-name="Path 55" class="cls-3" d="M203.31,244.35c38.8-12.71,74.1,75.5,71.4,82.59s-41.9,28.41-50.5,27.2-36-104.89-20.9-109.79"/><path id="Path_56" data-name="Path 56" class="cls-4" d="M197.61,238.64c38.8-12.7,74.1,75.5,71.4,82.6s-41.9,28.4-50.5,27.3S182.51,243.55,197.61,238.64Z"/><path id="Path_57" data-name="Path 57" class="cls-5" d="M156.61,222.35c109.9,2.6,82.1,247.9,77.1,256.7-6.8,11.8-147.4,22.5-181-10.41-7.8-7.59-.4-248.79,103.9-246.29"/><path id="Path_58" data-name="Path 58" class="cls-6" d="M138.21,217.55a60.36,60.36,0,0,1,12.7-.9c33.8.8,54.5,24.5,66.9,57.2"/><path id="Path_59" data-name="Path 59" class="cls-6" d="M234,362.64c3,55.6-3.8,106.8-6.1,110.71-6.8,11.79-147.4,22.5-181-10.41-7-6.9-1.6-207.09,78-241.4"/><path id="Path_60" data-name="Path 60" class="cls-2" d="M230.71,75.64c.2,13.6-94.9,26.5-95.4,45.9s-.8,30.6-.8,30.6c3.4,18.1-4,81.9-6,88.6,8,7.4,48,6.9,52.4,2.4-.6-4.5-.5-35.1.7-38.6h0a43.61,43.61,0,0,0,5.1.3c30.6,0,55.4-36.1,55.4-80.7-.2-23.19-.5-29.4-11.4-48.5"/><path id="Path_61" data-name="Path 61" class="cls-5" d="M99.91,229.74c42.5,13.2,17.1,116.2,8.9,120.31s-87.8-18.7-89.4-27.6,26.3-109.5,80.5-92.71"/><path id="Path_62" data-name="Path 62" class="cls-6" d="M118.11,277.14c-.3,31.3-10.4,64.91-15,67.21-8.1,4.09-87.8-18.71-89.4-27.6-.5-2.6,1.6-13.2,6.1-26.3"/><path id="Path_63" data-name="Path 63" class="cls-6" d="M42.21,246.55c13-17.3,30.4-29.1,51.9-22.4a24.13,24.13,0,0,1,5,2.1"/><path id="Path_64" data-name="Path 64" class="cls-6" d="M299,324.44c20.3-24.59,42-51,43.1-52.09,1.9-2,3-27.1,7.8-30.21s32.3,3.5,32,6.71-12.9,12.4-15.8,12.9"/><path id="Path_65" data-name="Path 65" class="cls-6" d="M259.51,329.75c2.4,6.6,10.1,43,10.4,41.9.7-.8,5.3-7.6,11.8-17.4"/><path id="Path_66" data-name="Path 66" class="cls-6" d="M383.31,226.55c13.6-17.1,12.5-38.6,6.9-32.6-1.9,2-28.3,43.4-33.1,47.4"/><path id="Path_67" data-name="Path 67" class="cls-6" d="M386.71,231.74c-1.9,2.8-10.3,13.81-10.3,13.81"/><path id="Path_68" data-name="Path 68" class="cls-6" d="M393.81,237.24a147.79,147.79,0,0,1-12.7,18.51"/><path id="Path_69" data-name="Path 69" class="cls-6" d="M400,243.05a188.42,188.42,0,0,1-14.5,20.8"/><path id="Path_70" data-name="Path 70" class="cls-6" d="M376.91,284.55a34.8,34.8,0,0,1-5.1,3.4c-4.6,2.4-78.7,131.7-95.2,140.5-3.9,2.1-18.5,5.6-31.6,4.2-6.8-.8-19.9-16-22-21.6"/><path id="Path_71" data-name="Path 71" class="cls-6" d="M400.91,253.05a52.52,52.52,0,0,1-9.6,16.9"/><path id="Path_72" data-name="Path 72" class="cls-6" d="M223.81,169.55c-10.2,18.1-25.6,29.6-42.9,29.6-11,0-21.3-4.7-30-12.8"/><path id="Path_73" data-name="Path 73" class="cls-6" d="M225,70a106.34,106.34,0,0,1,11.2,48.6,113.41,113.41,0,0,1-2.8,25.3"/><path id="Path_74" data-name="Path 74" class="cls-6" d="M138.21,143.24a15,15,0,1,1-2.8-26.19"/><path id="Path_75" data-name="Path 75" class="cls-7" d="M184,114c0,3.2-1.4,5.79-3.1,5.79s-3.1-2.6-3.1-5.79,1.4-5.8,3.1-5.8,3.1,2.59,3.1,5.8"/><path id="Path_76" data-name="Path 76" class="cls-7" d="M231.91,105.35c0,3.2-1.4,5.79-3.1,5.79s-3.1-2.6-3.1-5.79,1.4-5.8,3.1-5.8,3.1,2.59,3.1,5.8"/><path id="Path_77" data-name="Path 77" class="cls-6" d="M212.61,141a18.08,18.08,0,0,0,1.9,2.9"/><path id="Path_78" data-name="Path 78" class="cls-6" d="M209.51,123.14a41.12,41.12,0,0,0,1.1,12.6"/><path id="Path_79" data-name="Path 79" class="cls-6" d="M166.31,152.35c.6,4.1,5.1,9.29,11.3,11.29"/><path id="Path_80" data-name="Path 80" class="cls-6" d="M175.11,237.45c-.6-4.5-.5-35.1.7-38.6"/><path id="Path_81" data-name="Path 81" class="cls-6" d="M126.61,208a223.66,223.66,0,0,1-3.8,27.1c3.2,2.9,11.4,4.59,20.4,5.3"/><path id="Path_82" data-name="Path 82" class="cls-6" d="M128.81,146.45c1.4,7,1,20.9,0,35.7"/><path id="Path_83" data-name="Path 83" class="cls-6" d="M61.91,59.45a35.32,35.32,0,0,1,2.4-50,37.07,37.07,0,0,1,13.2-7.6"/><path id="Path_84" data-name="Path 84" class="cls-6" d="M120.81,22a35.4,35.4,0,0,1-41,48.19"/><path id="Path_85" data-name="Path 85" class="cls-6" d="M211.71,37c18.2,6.1,28.8,18.9,28.8,39.1,0,11.8-3.7,19.8-6.2,21"/><path id="Path_86" data-name="Path 86" class="cls-6" d="M88.11,151.24c6.2-25.1,11.9-56.7,21.2-74.19,17.6-32.8,44.5-43,68.3-44.1"/><path id="Path_87" data-name="Path 87" class="cls-6" d="M43,245.55c8.3-17.1,18.3-35,26.2-48.7"/><path id="Path_88" data-name="Path 88" class="cls-6" d="M209.11,226.24a41.38,41.38,0,0,0,2.8,12.51"/><path id="Path_89" data-name="Path 89" class="cls-6" d="M209.41,187.64c-1,3.5-1.5,14.71-1.1,25.9"/><path id="Path_90" data-name="Path 90" class="cls-6" d="M228.71,61c0,28.6-99.1,31.1-99.1,54.9"/><path id="Path_91" data-name="Path 91" class="cls-2" d="M274.21,484.25c-2.2-16.5-7.1-34.1-42.3-32.6-4.8-3.8-97.1-30-152.7-44.4,6.5-13.4,14-54.1,14.4-57.9-4.1-.8-65.1-19.5-65.1-19.5S3,436.44,8.51,445.44c34.1,21.7,162.1,37.41,220,33.3,4.1,3.2,3.5,5.2,9.2,6s36.5-.49,36.5-.49"/><path id="Path_92" data-name="Path 92" class="cls-6" d="M164.11,426.25c32.9,9.4,59.7,17.6,62.2,19.7,35.2-1.5,40.1,16,42.3,32.6"/><path id="Path_93" data-name="Path 93" class="cls-6" d="M87.91,343.75c-.4,3.7-7.9,44.4-14.4,57.9,19.4,5,43.2,11.4,66.2,17.9"/><path id="Path_94" data-name="Path 94" class="cls-6" d="M238.11,462.94a49,49,0,0,1,1.7,17.41"/><path id="Path_95" data-name="Path 95" class="cls-6" d="M248.71,462.94a49,49,0,0,1,1.7,17.41"/><path id="Path_96" data-name="Path 96" class="cls-6" d="M257.31,462.94a49,49,0,0,1,1.7,17.41"/><path id="Path_97" data-name="Path 97" class="cls-6" d="M4.31,412.44c-2.4,14.91-3.4,26-1.4,27.2,47.7,30.3,191.9,35,220,33.3"/><path id="Path_98" data-name="Path 98" class="cls-6" d="M22.81,324.14c-.5,1.8-5.4,22.5-10.4,45.91"/></g></svg>