<svg id="Layer_1" data-name="Layer 1" xmlns="http://www.w3.org/2000/svg" viewBox="0 0 1981.48 521.69"><defs><style>.cls-1{fill:#b1d897;}.cls-2,.cls-3,.cls-4{fill:#ede681;}.cls-2{fill-rule:evenodd;}.cls-4,.cls-5{stroke:#ede681;stroke-miterlimit:10;}.cls-4{stroke-width:12px;}.cls-5{fill:none;}</style></defs><title>logo</title><path class="cls-1" d="M415.33,45.08l-.13.27C393.26,89.86,346.81,89,262.61,87.5c-17.52-.31-37.38-.66-59-.66h-1.39c.11,11.67.28,23.88.44,36.55.62,45.48,1.28,94.74-.53,142.45,1.48,0,2.93-.06,4.41-.06h99.31a6.62,6.62,0,1,1,0,13.24H206.51c-1.65,0-3.31,0-5,.09-4.26,88.38-17.89,169.73-57.29,209.66-16.55,16.77-36.94,25.29-60.58,25.29-11.3,0-44.62-4-53.63-49.39a64.21,64.21,0,0,1-2-15.25c-.2-3.18-.31-6.51-.31-10,0-39.33,19.35-83,51.77-116.66,24.06-25,52.66-42.4,83.18-50.92,2.39-62.83.05-124.86-1.43-164.26-.27-6.4-.46-12.29-.64-17.59-23.61,4-40.54,11.74-51.29,23.48-12.87,14.06-17.63,34.23-15,63.45,2.89,28,13.26,52,19.8,62.86a6.62,6.62,0,1,1-11.37,6.79c-7.13-11.87-18.45-38-21.63-68.45a159.47,159.47,0,0,1-.84-16c0-67.8,37-103,109.93-104.63,1.72,0,3.49-.07,5.26-.09,22.62-.35,48.46.27,75.67.88,23.15.56,47.08,1.11,70.93,1.13h.24c29.4,0,50.81-7.35,61.89-21.3.09-.11.17-.22.26-.31a.1.1,0,0,1,.07-.06,2.54,2.54,0,0,1,.53-.51A6.06,6.06,0,0,1,407,36a3.39,3.39,0,0,1,.51-.17l.19-.07a3.3,3.3,0,0,1,.71-.13,6.08,6.08,0,0,1,2.21,0,1.83,1.83,0,0,1,.39.09,6.79,6.79,0,0,1,1.31.46s0,0,.06,0a2.4,2.4,0,0,1,.58.33.14.14,0,0,1,.11.06,3.57,3.57,0,0,0,.46.33,1.62,1.62,0,0,1,.2.18,2.76,2.76,0,0,1,.46.44,3.89,3.89,0,0,1,.42.49,3.62,3.62,0,0,1,.44.61,5.29,5.29,0,0,1,.42.82,3.69,3.69,0,0,1,.27.73l.06.26a3.46,3.46,0,0,1,.14.62A6.51,6.51,0,0,1,415.33,45.08ZM41,439.4a112.4,112.4,0,0,0,2.32,23.7C47.7,478.33,59.6,491.26,80,491.26c13.17,0,24.47-5.1,34.54-15.54C146,443,158.14,365.09,162.09,285.82c-26.71,8.27-51.73,24-73,46.1C59,363.21,41,403.4,41,439.4Z"/><path class="cls-1" d="M564.48,349.86a6.62,6.62,0,0,1-6.63,6.62H533.29c-9.86,0-18.87,0-26.72,0h-.2c-32.25,0-43-18.87-50.81-32.66-5.89-10.35-9.33-15.76-17.21-15.76-13.44,0-24.54,22.2-33.63,44.08-.05.11-.09.24-.16.37-10,26.53-18.18,61.9-22.51,105.8a3,3,0,0,1-.09.55,1.76,1.76,0,0,0,0,.27,9.7,9.7,0,0,1-5.83,7.41,14.58,14.58,0,0,1-6.07,1.17c-10.24,0-24.27-7.81-30.12-20-18.56-38.65-19.29-117.35-6.89-154.66,3.42-10.33,16.18-13.71,26-10.91,9.18,2.63,17,11.28,13.84,24.72-7.66,32.16-10.81,77.86-.29,120,4.73-31.58,11.5-57.71,19.53-78.72v0c.07-.22.14-.42.22-.64.16-.4.34-.8.49-1.2,17.46-44.71,40.65-65.56,61.66-65.56,32.71,0,45.8,22.44,56.3,40.47,8,13.68,13.33,22.07,22.51,22.07h24.56A6.64,6.64,0,0,1,564.48,349.86Z"/><path class="cls-1" d="M723,353.53c-23.84,35.79-61.14,91.87-100.31,108.91a.15.15,0,0,0-.09,0,6.63,6.63,0,0,1-1.92.82l-.09,0a54.55,54.55,0,0,1-20.45,4.24c-27.26,0-65.64-26.26-65.64-84.64,0-66.87,37.83-101.85,75.19-101.85,8.83,0,17,2.34,22.91,6.58a26,26,0,0,1,11.08,21.83v.81c-.68,33.77-40.1,61.51-65.13,73.51q-.79,9-.81,19c0,20.3,5,35,14.45,42.46,7.84,6.2,17.88,6.79,24.87,5.25,35.54-15.09,73.25-71.79,94.9-104.34a6.63,6.63,0,0,1,11,7.35ZM580.62,367.78c22.49-12.53,49-34.69,49.75-57.4v-.09c0-1.08-.25-6.64-5-8.39-3.12-1.12-8,.29-13.05,3.82C600.17,314.2,586.49,334.79,580.62,367.78Z"/><path class="cls-1" d="M1112.14,208.42a6.61,6.61,0,0,1-8.83-3.09c-11.56-24.1-54.44-37.08-88.94-37.08-55.79,0-99.4,13.49-141.59,26.55-34.65,10.71-70.3,21.74-112.47,25.27-6.47,32.86-10.93,72.59-10.93,120.41,0,122.16,33.44,147.87,40,147.87,5.08,0,10.26-12.91,14.48-23.64,5-14,9.64-30.26,14.08-45.7,7.13-24.9,14.5-50.61,23.83-71.8a6.62,6.62,0,0,1,12.12,5.34c-9,20.37-16.22,45.64-23.22,70.1-4.68,16.33-9.16,31.91-14,45.46-.06.15-.11.31-.17.46l0,.07c-9.64,27.06-20.67,45.82-37.56,45.82-34.8,0-70-58-70-168.81,0-47.85,4.48-89.52,11.14-125-28.82-2.69-53-15-71.92-36.61a6.62,6.62,0,0,1,9.95-8.72c6.56,7.48,25.51,29.09,64.6,32.27,15.78-74.68,40.76-119.75,50.78-135.64C780.3,61.17,792,56.63,800.81,61.39c7,3.82,12.36,14.41,4.37,31.76-1.37,3-3,6.31-4.84,10.06-9.75,20-25.71,52.64-37.16,103.33,38.66-3.66,71.41-13.79,105.69-24.38C912,168.81,956.59,155,1014.37,155c39.51,0,86.82,15.32,100.88,44.58A6.61,6.61,0,0,1,1112.14,208.42Z"/><polygon class="cls-2" points="930.03 209.96 909.63 210.17 910.41 198.18 903.38 191.92 886.84 190.56 883.81 193.34 880.08 238.79 882.39 241.95 901.65 243.49 906.81 238.8 908 225.34 929.75 225.84 930.03 209.96"/><polygon class="cls-2" points="935.17 136.45 911.84 136.7 912.63 124.6 905.58 118.31 888.89 116.96 885.8 119.75 882.05 165.52 884.42 168.68 903.78 170.22 909 165.51 910.2 151.98 934.79 152.55 935.17 136.45"/><polygon class="cls-2" points="945 69.05 917.25 69.38 918.04 57.28 911 50.99 894.31 49.61 891.25 52.44 887.47 98.17 889.83 101.36 909.19 102.89 914.41 98.19 915.61 84.66 944.29 85.28 945 69.05"/><polygon class="cls-2" points="920.15 341.7 903 341.88 903.79 329.78 896.72 323.48 880.05 322.14 877 324.94 873.25 370.68 875.58 373.89 894.97 375.43 900.16 370.72 901.39 357.17 920.35 357.57 920.15 341.7"/><polygon class="cls-2" points="923.88 275 905.62 275.17 906.41 263.1 899.36 256.8 882.67 255.45 879.62 258.22 875.86 304 878.16 307.21 897.58 308.75 902.78 304.01 903.98 290.46 924.08 290.93 923.88 275"/><path class="cls-3" d="M1110.78,343.8c8.15,18.18,10.83,39,2.73,57.7-3.89,9-13.5,23.6-89.88,59.24-15.19,7.08-32.08,10.89-43.7,23.64C971.57,493.54,963,510,948.8,510.23c-13.83.19-22.87-13.93-26.59-25.66-4.87-15.4-4.45-32.49-4.87-48.47-.49-18.19,0-36.45,0-54.54,0-31.55.11-63.11,1-94.65,1.63-61.13,4.16-122.25,8.93-183.22l.78-9.94c11.31-139,100.75-96.07,116.9-40.74,8.07,27.66.58,46.2-8.93,57.82-10.85,13.25-14.48,31-7.48,46.6,18.78,42,37,84.26,55.47,126.38C1092.73,303.88,1101.83,323.83,1110.78,343.8Zm-25.54,38.56c4.64-14.11.15-32.24-12.77-70.1-10-29.3-21.25-51.16-32.14-72.11-14.82-28.5-22.22-42.76-34.43-62.11-16.28-25.84-21-29-20.95-38.91.06-27.27,35.69-34,36.59-60.19.78-22.74-25.46-49.11-41.39-44.13-8.82,2.74-14.25,12.24-17.28,19.25C947.29,90.12,946.3,131.32,945.73,170c-1,70-3.51,141.23-5.77,211.7q-.66,20.26-1.25,40.55c-.37,12.2-1.85,25.31,6.47,35.48,9.86,12,21.55,6.55,31.09-2.55,10.62-10.12,16.12-20.68,30.38-25.66C1035.52,419.41,1074,416.68,1085.24,382.36Z"/><path class="cls-4" d="M1077.94,317.54c13.44,39.38,18.11,58.24,13.28,72.91-11.74,35.7-51.71,38.54-81.74,49.05-14.83,5.19-20.56,16.16-31.6,26.7-9.93,9.46-22.09,15.15-32.35,2.64-8.65-10.57-7.11-24.21-6.72-36.91q.63-21.07,1.29-42.17c2.35-73.3,5-147.35,6-220.22.58-40.22,1.61-83.07,17.83-120.58,3.14-7.3,8.79-17.17,18-20,16.57-5.18,43.86,22.25,43.05,45.91-.93,27.26-38,34.24-38.05,62.6,0,10.3,4.85,13.6,21.79,40.48,12.69,20.13,20.39,35,35.81,64.61C1055.84,264.32,1067.54,287.06,1077.94,317.54Z"/><path class="cls-5" d="M917.34,436.1c.42,16,0,33.07,4.87,48.47,3.72,11.73,12.76,25.85,26.59,25.66,14.22-.19,22.77-16.69,31.13-25.85,11.62-12.75,28.51-16.56,43.7-23.64,76.38-35.64,86-50.25,89.88-59.24,8.1-18.69,5.42-39.52-2.73-57.7-9-20-18-39.92-26.86-60-18.49-42.12-36.69-84.38-55.47-126.38-7-15.64-3.37-33.35,7.48-46.6,9.51-11.62,17-30.16,8.93-57.82C1028.71-2.32,939.27-45.27,928,93.75l-.78,9.94c-4.77,61-7.3,122.09-8.93,183.22-.84,31.54-1,63.1-1,94.65C917.33,399.65,916.85,417.91,917.34,436.1Z"/><path class="cls-3" d="M1367.69,355.88c-17.46,24.63-64.49,69.89-102.54,73A88.19,88.19,0,0,1,1247.43,451c-13.59,12.23-29.88,18.54-45.75,18.54-18.78,0-62.5-8.1-62.5-83.05,0-42.28,31.1-103.44,87.33-103.44,17.9,0,36.74,12.27,46.72,38.47l.2.44a6.36,6.36,0,0,1,.35,1s0,0,0,.09c4.13,11.52,6.6,25.62,6.6,42.44,0,18.67-3.09,35-8.41,48.77,29.82-7.37,67.54-41.62,84.88-66.12a6.63,6.63,0,0,1,10.82,7.66Zm-100.53,9.69c0-15.56-2.25-28.34-6-38.51-3.07-7-9.93-18.32-21.67-18.32-27.19,0-56.57,29.17-56.57,76.31,0,41.58,11.57,66.39,30.9,66.39,7.66,0,14.81-3.05,20.39-6.89l.09-.06a72.1,72.1,0,0,0,5.83-4.9,1.3,1.3,0,0,0,.26-.27c.18-.15.31-.31.46-.46s.34-.33.51-.49l.09-.06a75.64,75.64,0,0,0,9.78-12,12.3,12.3,0,0,1-5.5-9.16c-.75-8.06,5.78-15.74,14.9-17.46a5.66,5.66,0,0,1,2.32,0A130.8,130.8,0,0,0,1267.16,365.57Z"/><path class="cls-3" d="M1586.55,351.86a6.63,6.63,0,0,1-6.62,6.62h-24.56c-9.87,0-18.87,0-26.73,0h-.2c-32.24,0-43-18.87-50.8-32.66-5.89-10.35-9.34-15.76-17.21-15.76-13.44,0-24.55,22.2-33.64,44.07,0,.11-.09.25-.15.38-10,26.53-18.19,61.9-22.51,105.8a4.21,4.21,0,0,1-.09.55,1.76,1.76,0,0,0,0,.27,9.74,9.74,0,0,1-5.83,7.41,14.61,14.61,0,0,1-6.07,1.17c-10.24,0-24.28-7.81-30.13-20-18.56-38.65-19.28-117.35-6.88-154.67,3.42-10.32,16.18-13.7,26-10.9,9.18,2.63,17,11.28,13.84,24.72-7.66,32.15-10.82,77.86-.29,120,4.72-31.58,11.5-57.71,19.53-78.72v0c.07-.23.13-.42.22-.64l.49-1.2c17.45-44.71,40.65-65.56,61.66-65.56,32.71,0,45.79,22.44,56.3,40.47,8,13.68,13.33,22.07,22.51,22.07h24.56A6.64,6.64,0,0,1,1586.55,351.86Z"/><path class="cls-3" d="M1745,355.52c-23.83,35.8-61.13,91.88-100.3,108.92a.11.11,0,0,0-.09,0,6.91,6.91,0,0,1-1.92.82l-.09,0a54.64,54.64,0,0,1-20.46,4.24c-27.25,0-65.63-26.27-65.63-84.64,0-66.87,37.83-101.85,75.19-101.85,8.83,0,17,2.34,22.91,6.58a26,26,0,0,1,11.08,21.82v.82c-.69,33.77-40.1,61.51-65.13,73.51-.53,6-.82,12.34-.82,19,0,20.3,5,35,14.46,42.46,7.83,6.2,17.87,6.79,24.87,5.25,35.53-15.1,73.25-71.79,94.9-104.34a6.62,6.62,0,0,1,11,7.34ZM1602.7,369.78c22.49-12.53,49-34.69,49.74-57.4v-.09c0-1.08-.24-6.64-5-8.39-3.11-1.12-8,.29-13,3.82C1622.25,316.2,1608.57,336.79,1602.7,369.78Z"/><path class="cls-3" d="M1978.31,122.23a4.19,4.19,0,0,1-.16.46s0,.07,0,.09q-8.45,37.44-38.64,97.19a1187.89,1187.89,0,0,1-62.26,107.79c1.21,141.53,20.19,152.83,26.15,152.83.84,0,3.07-1,7.75-8.76a3.18,3.18,0,0,1,.24-.44c.93-1.63,1.88-3.33,2.87-5.14.22-.42.46-.84.68-1.28l.91-1.7s0,0,0-.07q1.86-3.51,3.84-7.46c14.3-28.38,28.6-64.15,39-90.26,2.34-5.83,4.51-11.26,6.47-16.11a6.62,6.62,0,0,1,12.27,5c-2,4.84-4.13,10.25-6.44,16-15.87,39.68-30.9,76-45.25,102.35a3.84,3.84,0,0,1-.28.53c-.91,1.73-1.92,3.6-3.07,5.5-13.2,23.06-25.78,37.14-37.89,37.14-19,0-32.2-20.35-40.35-62.17A473.33,473.33,0,0,1,1837.5,402a208.19,208.19,0,0,1-14.3,26c-14.52,22.18-34.93,41.58-62.72,41.58-21.89,0-47.45-17.35-47.45-66.21,0-62,51.6-120.28,91.59-120.28,14.77,0,24.12,3.4,30.57,8,2.69-57.89,13.92-111.54,32.28-153.34,21.68-49.3,50.72-76.45,81.77-76.45,16.77,0,24.54,8.43,28.09,15.5,2.65,5.23,4,11.83,4.06,19.77,0,.22,0,.44,0,.68Q1981.92,107.86,1978.31,122.23ZM1835.65,372c-.73-16.53-1.11-34.43-1.11-53.59,0-3,0-6,.09-8.91l-1-1.44a31.27,31.27,0,0,0-3.93-4.41s0,0-.05,0c-2.29-1.42-6-2.23-11.85-.64-25.84,7-63.36,51.26-63.36,104.8,0,27.3,14.41,41,22.49,41s19.49-8,29.13-19.82C1820.84,409.81,1830.59,385.36,1835.65,372Zm129.28-285.4a7.25,7.25,0,0,0-6.11-2.87c-20.53,0-79,75.52-81.57,219.76,34.67-55.34,76.45-133.49,88-182.93a6.26,6.26,0,0,1,.2-1.54c.77-3,1.35-5.81,1.77-8.32.31-1.86.53-3.58.7-5.19C1969.08,93.69,1966.43,88.51,1964.93,86.59Z"/><path class="cls-2" d="M922.9,405.12l-16.08.65-8.62-.06,1-12.09-7-6.41-16.64-1.63-3.1,2.74L868,434l2.27,3.25,19.35,1.88,5.28-4.62L896.32,421l24.79.21Q922,413.16,922.9,405.12Z"/></svg>