<svg id="Layer_1" data-name="Layer 1" xmlns="http://www.w3.org/2000/svg" viewBox="0 0 38.2 30.26"><defs><style>.cls-1{fill:#b0d796;}</style></defs><title>pick</title><path id="Path_49" data-name="Path 49" class="cls-1" d="M0,15.12A20.58,20.58,0,0,1,2.31,5.45,8.47,8.47,0,0,1,5.23,2.09a13.17,13.17,0,0,1,8.18-2A28.67,28.67,0,0,1,23.48,3a44,44,0,0,1,12.66,8.92,11.74,11.74,0,0,1,1.75,2.27,2.09,2.09,0,0,1,0,2.23,12.07,12.07,0,0,1-2,2.53,42.35,42.35,0,0,1-10.82,7.76A33.61,33.61,0,0,1,15,30a15.4,15.4,0,0,1-7.79-.64A8.59,8.59,0,0,1,3,26.28,16.37,16.37,0,0,1,.45,20.06,29.18,29.18,0,0,1,0,15.12Z"/></svg>